<?xml version="1.0" standalone="no"?>
<!DOCTYPE svg PUBLIC "-//W3C//DTD SVG 20010904//EN"
 "http://www.w3.org/TR/2001/REC-SVG-20010904/DTD/svg10.dtd">
<svg version="1.0" xmlns="http://www.w3.org/2000/svg"
 width="1241.000000pt" height="1241.000000pt" viewBox="0 0 1241.000000 1241.000000"
 preserveAspectRatio="xMidYMid meet">
<metadata>
Created by potrace 1.14, written by Peter Selinger 2001-2017
</metadata>
<g transform="translate(0.000000,1241.000000) scale(0.100000,-0.100000)"
fill="#000000" stroke="none">
<path d="M1129 12406 c-2 -2 -22 -6 -44 -9 -155 -20 -363 -95 -487 -175 -134
-87 -234 -177 -329 -297 -123 -155 -210 -346 -250 -550 -12 -59 -14 -867 -14
-5145 0 -2791 3 -5100 7 -5130 17 -134 49 -241 113 -375 123 -258 327 -466
580 -589 95 -47 217 -90 280 -100 20 -4 40 -8 44 -10 4 -3 41 -8 82 -12 95
-10 10104 -10 10184 0 459 56 859 367 1024 795 32 83 64 205 77 296 10 67 12
10092 2 10175 -21 178 -67 324 -151 480 -82 151 -235 322 -379 422 -152 106
-301 166 -533 216 -32 7 -10199 15 -10206 8z"/>
</g>
</svg>
