<?xml version="1.0" standalone="no"?>
<!DOCTYPE svg PUBLIC "-//W3C//DTD SVG 20010904//EN"
 "http://www.w3.org/TR/2001/REC-SVG-20010904/DTD/svg10.dtd">
<svg version="1.0" xmlns="http://www.w3.org/2000/svg"
 width="1654.000000pt" height="1654.000000pt" viewBox="0 0 1654.000000 1654.000000"
 preserveAspectRatio="xMidYMid meet">
<metadata>
Created by potrace 1.14, written by Peter Selinger 2001-2017
</metadata>
<g transform="translate(0.000000,1654.000000) scale(0.100000,-0.100000)"
fill="#000000" stroke="none">
<path d="M4739 11994 l-674 -674 276 -277 c152 -153 279 -286 282 -295 4 -10
13 -18 22 -18 8 0 15 -7 15 -16 0 -9 9 -18 20 -21 11 -3 20 -12 20 -20 0 -8 9
-17 20 -20 11 -3 20 -12 20 -20 0 -8 9 -17 20 -20 11 -3 20 -12 20 -20 0 -8 9
-17 20 -20 11 -3 20 -12 20 -20 0 -8 9 -17 20 -20 11 -3 20 -12 20 -20 0 -8 9
-17 20 -20 11 -3 20 -12 20 -20 0 -8 9 -17 20 -20 11 -3 20 -12 20 -20 0 -8 9
-17 20 -20 11 -3 20 -12 20 -20 0 -8 9 -17 20 -20 11 -3 20 -12 20 -20 0 -8 9
-17 20 -20 11 -3 20 -12 20 -20 0 -8 9 -17 20 -20 11 -3 20 -12 20 -20 0 -8 9
-17 20 -20 11 -3 20 -12 20 -20 0 -8 9 -17 20 -20 11 -3 20 -12 20 -20 0 -8 9
-17 20 -20 11 -3 20 -12 20 -20 0 -8 9 -17 20 -20 11 -3 20 -12 20 -19 0 -8 8
-18 17 -21 23 -9 63 -49 63 -63 0 -6 8 -14 17 -17 23 -9 63 -49 63 -63 0 -6 8
-14 17 -17 23 -9 63 -49 63 -63 0 -6 8 -14 17 -17 23 -9 63 -49 63 -63 0 -6 8
-14 17 -17 23 -9 63 -49 63 -63 0 -6 8 -14 17 -17 23 -9 63 -49 63 -63 0 -6 8
-14 17 -17 23 -9 63 -49 63 -63 0 -6 8 -14 17 -17 23 -9 63 -49 63 -63 0 -6 8
-14 17 -17 23 -9 63 -49 63 -63 0 -6 8 -14 17 -17 23 -9 63 -49 63 -63 0 -6 8
-14 17 -17 23 -9 63 -49 63 -63 0 -6 8 -14 17 -17 23 -9 63 -49 63 -63 0 -6 8
-14 17 -17 23 -9 63 -49 63 -63 0 -6 8 -14 17 -17 23 -9 57 -43 66 -66 3 -9
11 -17 17 -17 14 0 54 -40 63 -63 3 -9 11 -17 17 -17 14 0 54 -40 63 -63 3 -9
11 -17 17 -17 14 0 54 -40 63 -63 3 -9 11 -17 17 -17 14 0 54 -40 63 -63 3 -9
11 -17 17 -17 14 0 54 -40 63 -63 3 -9 11 -17 17 -17 14 0 54 -40 63 -63 3 -9
11 -17 17 -17 14 0 60 -46 60 -60 0 -6 8 -14 17 -17 23 -9 57 -43 66 -66 3 -9
11 -17 17 -17 14 0 54 -40 63 -63 3 -9 11 -17 17 -17 14 0 54 -40 63 -63 3 -9
11 -17 17 -17 14 0 54 -40 63 -63 3 -9 11 -17 17 -17 14 0 54 -40 63 -63 3 -9
11 -17 17 -17 14 0 54 -40 63 -63 3 -9 11 -17 17 -17 14 0 54 -40 63 -63 3 -9
11 -17 17 -17 14 0 54 -40 63 -63 3 -9 11 -17 17 -17 14 0 54 -40 63 -63 3 -9
11 -17 17 -17 13 0 1175 -1161 1183 -1183 3 -9 11 -17 17 -17 5 0 478 -468
1050 -1040 731 -731 1046 -1040 1061 -1040 21 0 59 34 59 52 0 4 5 8 10 8 9 0
808 799 1129 1130 l143 148 -3460 3460 -3460 3460 -673 -674z"/>
<path d="M2771 10031 l-672 -670 270 -270 c149 -149 271 -275 271 -281 0 -16
6369 -6380 6385 -6380 18 0 1065 1044 1065 1062 0 7 63 76 140 153 l140 140
-3454 3455 c-1900 1900 -3459 3456 -3464 3458 -5 1 -311 -299 -681 -667z"/>
</g>
</svg>
